<svg xmlns="http://www.w3.org/2000/svg" version="1.1" class="w100 h-auto" width="660" height="400" viewBox="0 0 585 395"><g></g><g class="chart-area" font-family="sans-serif" transform="translate(100, 20)"><g transform="translate(0,300)" fill="none" font-size="10" font-family="sans-serif" text-anchor="middle"><path class="domain" stroke="currentColor" d="M0,6V0H410V6"></path><g class="tick" opacity="1" transform="translate(36.53535179769482,0)"><line stroke="currentColor" y2="6"></line><text fill="currentColor" y="9" dy="0.71em" style="font-size: 12px;">2010</text></g><g class="tick" opacity="1" transform="translate(88.02339583691726,0)"><line stroke="currentColor" y2="6"></line><text fill="currentColor" y="9" dy="0.71em" style="font-size: 12px;">2012</text></g><g class="tick" opacity="1" transform="translate(139.5819714433167,0)"><line stroke="currentColor" y2="6"></line><text fill="currentColor" y="9" dy="0.71em" style="font-size: 12px;">2014</text></g><g class="tick" opacity="1" transform="translate(191.07001548253913,0)"><line stroke="currentColor" y2="6"></line><text fill="currentColor" y="9" dy="0.71em" style="font-size: 12px;">2016</text></g><g class="tick" opacity="1" transform="translate(242.62859108893858,0)"><line stroke="currentColor" y2="6"></line><text fill="currentColor" y="9" dy="0.71em" style="font-size: 12px;">2018</text></g><g class="tick" opacity="1" transform="translate(294.116635128161,0)"><line stroke="currentColor" y2="6"></line><text fill="currentColor" y="9" dy="0.71em" style="font-size: 12px;">2020</text></g><g class="tick" opacity="1" transform="translate(345.6752107345605,0)"><line stroke="currentColor" y2="6"></line><text fill="currentColor" y="9" dy="0.71em" style="font-size: 12px;">2022</text></g><g class="tick" opacity="1" transform="translate(397.1632547737829,0)"><line stroke="currentColor" y2="6"></line><text fill="currentColor" y="9" dy="0.71em" style="font-size: 12px;">2024</text></g></g><g class="grid-lines" transform="translate(0,300)" fill="none" font-size="10" font-family="sans-serif" text-anchor="middle"><path class="domain" stroke="currentColor" d="M0,-300V0H410V-300"></path><g class="tick" opacity="1" transform="translate(36.53535179769482,0)"><line stroke="currentColor" y2="-300" style="stroke: #ccc; fill: none;"></line></g><g class="tick" opacity="1" transform="translate(88.02339583691726,0)"><line stroke="currentColor" y2="-300" style="stroke: #ccc; fill: none;"></line></g><g class="tick" opacity="1" transform="translate(139.5819714433167,0)"><line stroke="currentColor" y2="-300" style="stroke: #ccc; fill: none;"></line></g><g class="tick" opacity="1" transform="translate(191.07001548253913,0)"><line stroke="currentColor" y2="-300" style="stroke: #ccc; fill: none;"></line></g><g class="tick" opacity="1" transform="translate(242.62859108893858,0)"><line stroke="currentColor" y2="-300" style="stroke: #ccc; fill: none;"></line></g><g class="tick" opacity="1" transform="translate(294.116635128161,0)"><line stroke="currentColor" y2="-300" style="stroke: #ccc; fill: none;"></line></g><g class="tick" opacity="1" transform="translate(345.6752107345605,0)"><line stroke="currentColor" y2="-300" style="stroke: #ccc; fill: none;"></line></g><g class="tick" opacity="1" transform="translate(397.1632547737829,0)"><line stroke="currentColor" y2="-300" style="stroke: #ccc; fill: none;"></line></g></g><text x="205" y="360" class="axis-label x-axis-label" style="text-anchor: middle; font-weight: bold;">Year</text><g fill="none" font-size="10" font-family="sans-serif" text-anchor="end"><path class="domain" stroke="currentColor" d="M-6,300H0V0H-6"></path><g class="tick" opacity="1" transform="translate(0,300)"><line stroke="currentColor" x2="-6"></line><text fill="currentColor" x="-9" dy="0.32em" style="font-size: 12px;">0.00%</text></g><g class="tick" opacity="1" transform="translate(0,266.66666666666663)"><line stroke="currentColor" x2="-6"></line><text fill="currentColor" x="-9" dy="0.32em" style="font-size: 12px;">2.00%</text></g><g class="tick" opacity="1" transform="translate(0,233.33333333333334)"><line stroke="currentColor" x2="-6"></line><text fill="currentColor" x="-9" dy="0.32em" style="font-size: 12px;">4.00%</text></g><g class="tick" opacity="1" transform="translate(0,200.00000000000003)"><line stroke="currentColor" x2="-6"></line><text fill="currentColor" x="-9" dy="0.32em" style="font-size: 12px;">6.00%</text></g><g class="tick" opacity="1" transform="translate(0,166.66666666666669)"><line stroke="currentColor" x2="-6"></line><text fill="currentColor" x="-9" dy="0.32em" style="font-size: 12px;">8.00%</text></g><g class="tick" opacity="1" transform="translate(0,133.33333333333331)"><line stroke="currentColor" x2="-6"></line><text fill="currentColor" x="-9" dy="0.32em" style="font-size: 12px;">10.00%</text></g><g class="tick" opacity="1" transform="translate(0,100.00000000000001)"><line stroke="currentColor" x2="-6"></line><text fill="currentColor" x="-9" dy="0.32em" style="font-size: 12px;">12.00%</text></g><g class="tick" opacity="1" transform="translate(0,66.66666666666663)"><line stroke="currentColor" x2="-6"></line><text fill="currentColor" x="-9" dy="0.32em" style="font-size: 12px;">14.00%</text></g><g class="tick" opacity="1" transform="translate(0,33.333333333333314)"><line stroke="currentColor" x2="-6"></line><text fill="currentColor" x="-9" dy="0.32em" style="font-size: 12px;">16.00%</text></g><g class="tick" opacity="1" transform="translate(0,0)"><line stroke="currentColor" x2="-6"></line><text fill="currentColor" x="-9" dy="0.32em" style="font-size: 12px;">18.00%</text></g></g><g class="grid-lines" fill="none" font-size="10" font-family="sans-serif" text-anchor="end"><path class="domain" stroke="currentColor" d="M410,300H0V0H410"></path><g class="tick" opacity="1" transform="translate(0,300)"><line stroke="currentColor" x2="410" style="stroke: #ccc; fill: none;"></line></g><g class="tick" opacity="1" transform="translate(0,266.66666666666663)"><line stroke="currentColor" x2="410" style="stroke: #ccc; fill: none;"></line></g><g class="tick" opacity="1" transform="translate(0,233.33333333333334)"><line stroke="currentColor" x2="410" style="stroke: #ccc; fill: none;"></line></g><g class="tick" opacity="1" transform="translate(0,200.00000000000003)"><line stroke="currentColor" x2="410" style="stroke: #ccc; fill: none;"></line></g><g class="tick" opacity="1" transform="translate(0,166.66666666666669)"><line stroke="currentColor" x2="410" style="stroke: #ccc; fill: none;"></line></g><g class="tick" opacity="1" transform="translate(0,133.33333333333331)"><line stroke="currentColor" x2="410" style="stroke: #ccc; fill: none;"></line></g><g class="tick" opacity="1" transform="translate(0,100.00000000000001)"><line stroke="currentColor" x2="410" style="stroke: #ccc; fill: none;"></line></g><g class="tick" opacity="1" transform="translate(0,66.66666666666663)"><line stroke="currentColor" x2="410" style="stroke: #ccc; fill: none;"></line></g><g class="tick" opacity="1" transform="translate(0,33.333333333333314)"><line stroke="currentColor" x2="410" style="stroke: #ccc; fill: none;"></line></g><g class="tick" opacity="1" transform="translate(0,0)"><line stroke="currentColor" x2="410" style="stroke: #ccc; fill: none;"></line></g></g><g class="lines"><path class="line" d="M2.186,163.344L4.302,166.671L6.489,172.698L8.605,184.298L10.791,177.828L12.978,184.441L14.953,182.185L17.139,178.977L19.255,181.275L21.442,173.995L23.558,182.591L25.744,187.338L27.931,184.654L30.046,183.927L32.233,179.193L34.349,180.362L36.535,160.63L38.722,165.696L40.697,156.992L42.883,169.791L44.999,165.134L47.186,170.929L49.302,175.374L51.488,176.005L53.675,170.831L55.79,167.838L57.977,165.221L60.093,163.093L62.279,162.769L64.466,161.109L66.441,159.223L68.627,161.413L70.743,156.965L72.93,166.472L75.046,164.028L77.232,164.326L79.419,163.132L81.534,158.53L83.721,151.798L85.837,151.579L88.023,153.632L90.21,151.819L92.255,144.912L94.442,143.704L96.558,148.198L98.744,157.999L100.86,155.448L103.047,154.82L105.233,152.734L107.349,149.193L109.536,146.088L111.651,146.304L113.838,154.178L116.024,150.112L117.999,146.498L120.186,141.535L122.302,146.588L124.488,152.732L126.604,156.145L128.791,151.922L130.977,135.684L133.093,130.032L135.28,122.177L137.395,123.576L139.582,134.547L141.768,128.801L143.743,123.106L145.93,120.434L148.046,129.438L150.232,136.149L152.348,135.914L154.535,138.757L156.721,131.736L158.837,126.628L161.024,120.669L163.14,123.418L165.326,132.798L167.512,133.047L169.487,125.199L171.674,124.808L173.79,132.267L175.976,140.391L178.092,139.391L180.279,141.687L182.465,139.842L184.581,132.718L186.768,132.416L188.884,138.762L191.07,145.784L193.256,140.842L195.302,134.102L197.488,133.581L199.604,148.983L201.791,154.806L203.907,157.999L206.093,159.516L208.28,156.212L210.396,152.899L212.582,149.681L214.698,156.497L216.885,161.412L219.071,160.17L221.046,155.518L223.232,149.987L225.348,152.675L227.535,161.997L229.651,167.798L231.837,169.523L234.024,167.598L236.14,161.452L238.326,158.805L240.442,161.29L242.629,170.374L244.815,167.714L246.79,167.944L248.976,160.346L251.092,164.693L253.279,171.306L255.395,176.011L257.581,179.527L259.768,174.724L261.884,168.48L264.07,168.109L266.186,166.704L268.373,175.438L270.559,173.328L272.534,173.803L274.72,177.162L276.836,176.419L279.023,180.35L281.139,178.94L283.325,188.191L285.512,180.772L287.628,176.209L289.814,182.798L291.93,185.383L294.117,185.829L296.303,183.455L298.349,180.618L300.535,183.958L302.651,191.587L304.837,193.967L306.953,194.091L309.14,194.385L311.326,193.727L313.442,193.935L315.629,194.311L317.745,201.904L319.931,203.364L322.118,203.161L324.093,201.891L326.279,201.935L328.395,200.101L330.581,201.039L332.697,205.758L334.884,206.985L337.07,207.19L339.186,207.306L341.373,202.5L343.489,207.29L345.675,209.306L347.862,212.498L349.837,210.471L352.023,206.441L354.139,206.282L356.325,213.814L358.441,217.944L360.628,220.962L362.814,218.154L364.93,216.168L367.117,216.957L369.233,216.192L371.419,218.498L373.606,219.651L375.581,213.328L377.767,210.853L379.883,215.381L382.069,211.226L384.185,215.15L386.372,214.183L388.558,217.108L390.674,216.159L392.861,214.882L394.977,222.409L397.163,221.013L399.35,221.449L401.395,218.153L403.582,222.436L405.698,228.083L407.884,228.436L410,233.626" data-legend="java" style="stroke: rgb(31, 119, 180); fill: none;"></path><path class="line" d="M2.186,261.198L4.302,264.779L6.489,265.572L8.605,273.634L10.791,266.176L12.978,268.178L14.953,264.581L17.139,264.018L19.255,268.502L21.442,270.26L23.558,271.951L25.744,272.711L27.931,270.767L30.046,264.11L32.233,258.051L34.349,262.145L36.535,263.359L38.722,261.204L40.697,264.135L42.883,260.305L44.999,261.856L47.186,265.188L49.302,264.48L51.488,263.969L53.675,262.329L55.79,262.104L57.977,259.612L60.093,264.595L62.279,269.345L64.466,266.91L66.441,264.889L68.627,264.258L70.743,269.443L72.93,270.114L75.046,272.3L77.232,271.33L79.419,268.33L81.534,264.412L83.721,266.007L85.837,267.45L88.023,267.739L90.21,267.37L92.255,265.756L94.442,265.094L96.558,268.969L98.744,270.353L100.86,272.015L103.047,272.512L105.233,267.924L107.349,264.672L109.536,263.876L111.651,268.262L113.838,269.066L116.024,266.091L117.999,266.892L120.186,265.499L122.302,267.832L124.488,268.918L126.604,271.46L128.791,270.39L130.977,265.737L133.093,261.497L135.28,259.385L137.395,264.565L139.582,266.904L141.768,264.557L143.743,263.243L145.93,265.502L148.046,269.011L150.232,271.41L152.348,273.235L154.535,272.536L156.721,267.381L158.837,263.132L161.024,263.169L163.14,265.935L165.326,267.521L167.512,266.456L169.487,265.29L171.674,264.992L173.79,268.135L175.976,271.637L178.092,275.806L180.279,276.145L182.465,270.82L184.581,266.798L186.768,265.92L188.884,269.878L191.07,271.757L193.256,270.776L195.302,271.301L197.488,271.342L199.604,275.841L201.791,279.011L203.907,277.668L206.093,279.523L208.28,275.374L210.396,269.197L212.582,268.657L214.698,271.006L216.885,273.742L219.071,273.772L221.046,275.241L223.232,273.116L225.348,275.221L227.535,277.827L229.651,280.881L231.837,280.62L234.024,278.195L236.14,272.516L238.326,270.605L240.442,274.576L242.629,276.749L244.815,276.421L246.79,276.001L248.976,277.365L251.092,276.2L253.279,279.988L255.395,283.12L257.581,282.136L259.768,278.558L261.884,274.274L264.07,271.561L266.186,272.014L268.373,274.22L270.559,276.303L272.534,275.047L274.72,273.28L276.836,276.649L279.023,278.533L281.139,280.436L283.325,280.904L285.512,275.251L287.628,272.592L289.814,271.464L291.93,272.718L294.117,276.433L296.303,276.992L298.349,273.207L300.535,270.073L302.651,269.602L304.837,274.615L306.953,278.737L309.14,278.494L311.326,274.419L313.442,271.846L315.629,266.389L317.745,266.78L319.931,269.096L322.118,271.327L324.093,271.824L326.279,271.518L328.395,273.76L330.581,275.607L332.697,278.042L334.884,278.866L337.07,276.022L339.186,270.383L341.373,268.845L343.489,268.51L345.675,272.441L347.862,275.207L349.837,273.476L352.023,274.394L354.139,274.401L356.325,276.426L358.441,279.003L360.628,278.613L362.814,274.832L364.93,270.029L367.117,269.207L369.233,269.908L371.419,274.986L373.606,275.825L375.581,276.969L377.767,272.967L379.883,275.05L382.069,278.27L384.185,277.441L386.372,277.749L388.558,278.435L390.674,275.966L392.861,275.179L394.977,273.446L397.163,277.353L399.35,278.25L401.395,278.642L403.582,277.835L405.698,278.923L407.884,278.003L410,277.672" data-legend="c" style="stroke: rgb(255, 127, 14); fill: none;"></path><path class="line" d="M2.186,235.128L4.302,241.298L6.489,240.352L8.605,238.713L10.791,232.672L12.978,239.432L14.953,236.923L17.139,238.973L19.255,234.842L21.442,237.834L23.558,239.679L25.744,241.657L27.931,240.257L30.046,234.21L32.233,232.013L34.349,229.244L36.535,227.505L38.722,230.106L40.697,233.297L42.883,239.299L44.999,234.98L47.186,233.517L49.302,228.572L51.488,234.252L53.675,238.287L55.79,229.663L57.977,237.282L60.093,240.259L62.279,239.09L64.466,239.071L66.441,237.66L68.627,241.55L70.743,241.118L72.93,241.23L75.046,238.939L77.232,240.018L79.419,242.018L81.534,240.081L83.721,240.307L85.837,241.29L88.023,239.209L90.21,238.974L92.255,236.729L94.442,235.854L96.558,236.362L98.744,232.278L100.86,232.333L103.047,230.436L105.233,233.356L107.349,231.33L109.536,227.48L111.651,228.748L113.838,230.126L116.024,226.27L117.999,226.489L120.186,222.431L122.302,221.353L124.488,219.542L126.604,218.229L128.791,221.766L130.977,219.447L133.093,213.738L135.28,209.752L137.395,214.467L139.582,212.674L141.768,211.728L143.743,207.839L145.93,207.293L148.046,212.071L150.232,208.033L152.348,206.151L154.535,206.429L156.721,211.374L158.837,207.067L161.024,203.637L163.14,202.365L165.326,202.045L167.512,198.237L169.487,197.334L171.674,198.799L173.79,198.482L175.976,194.446L178.092,194.028L180.279,195.996L182.465,196.345L184.581,187.406L186.768,184.033L188.884,186.456L191.07,185.411L193.256,181.918L195.302,182.776L197.488,183.435L199.604,183.72L201.791,182.246L203.907,178.112L206.093,180.54L208.28,178.922L210.396,170.344L212.582,163.833L214.698,164.818L216.885,164.217L219.071,158.062L221.046,157.007L223.232,152.602L225.348,154.058L227.535,148.849L229.651,141.737L231.837,143.643L234.024,139.562L236.14,132.362L238.326,131.018L240.442,127.21L242.629,129.616L244.815,120.699L246.79,125.637L248.976,124.202L251.092,123.298L253.279,116.511L255.395,110.545L257.581,110.796L259.768,112.567L261.884,108.948L264.07,96.735L266.186,99.095L268.373,108.352L270.559,97.669L272.534,91.257L274.72,81.618L276.836,88.849L279.023,85.77L281.139,79.092L283.325,77.752L285.512,91.469L287.628,73.927L289.814,65.709L291.93,69.694L294.117,70.528L296.303,67.342L298.349,55.402L300.535,45.582L302.651,34.253L304.837,34.176L306.953,33.223L309.14,38.609L311.326,41.471L313.442,29.262L315.629,23.628L317.745,21.382L319.931,24.571L322.118,25.976L324.093,30.19L326.279,22.228L328.395,18.352L330.581,27.194L332.697,21.057L334.884,26.625L337.07,32.987L339.186,20.173L341.373,17.044L343.489,14.752L345.675,22.404L347.862,15.268L349.837,17.688L352.023,7.966L354.139,18.918L356.325,16.747L358.441,11.123L360.628,21.724L362.814,22.938L364.93,6.597L367.117,10.512L369.233,23.665L371.419,39.425L373.606,43.78L375.581,52.613L377.767,51.616L379.883,57.303L382.069,59.432L384.185,57.454L386.372,67.064L388.558,85.154L390.674,78.255L392.861,80.752L394.977,85.774L397.163,86.962L399.35,78.562L401.395,85.81L403.582,78.951L405.698,80.386L407.884,86.28L410,85.371" data-legend="python" style="stroke: rgb(44, 160, 44); fill: none;"></path><path class="line" d="M2.186,101.14L4.302,69.145L6.489,69.282L8.605,76.45L10.791,46.799L12.978,50.519L14.953,39.436L17.139,38.219L19.255,67.724L21.442,68.474L23.558,70.5L25.744,70.807L27.931,77.843L30.046,80.808L32.233,95.075L34.349,99.92L36.535,108.479L38.722,108.76L40.697,105.853L42.883,105.998L44.999,108.177L47.186,114.741L49.302,115.371L51.488,116.306L53.675,123.928L55.79,122.774L57.977,123.602L60.093,128.558L62.279,132.303L64.466,133.676L66.441,133.943L68.627,137.298L70.743,132.835L72.93,134.954L75.046,139.995L77.232,142.749L79.419,147.288L81.534,147.655L83.721,147.566L85.837,149.411L88.023,149.859L90.21,154.455L92.255,154.943L94.442,155.76L96.558,156.18L98.744,155.018L100.86,154.677L103.047,158.351L105.233,157.045L107.349,157.688L109.536,161.367L111.651,164.192L113.838,164.212L116.024,163.067L117.999,162.384L120.186,164.192L122.302,164.556L124.488,164.648L126.604,165.541L128.791,163.703L130.977,160.876L133.093,161.88L135.28,161.503L137.395,162.133L139.582,164.107L141.768,165.184L143.743,169.632L145.93,168.118L148.046,167.93L150.232,171.36L152.348,170.724L154.535,171.914L156.721,175.533L158.837,178.305L161.024,180.634L163.14,180.373L165.326,181.274L167.512,182.385L169.487,182.587L171.674,184.196L173.79,179.131L175.976,178.951L178.092,178.668L180.279,177.441L182.465,177.757L184.581,184.558L186.768,183.22L188.884,181.67L191.07,185.3L193.256,186.428L195.302,186.574L197.488,182.793L199.604,180.173L201.791,180.866L203.907,185.855L206.093,182.283L208.28,191.078L210.396,190.049L212.582,188.086L214.698,189.199L216.885,188.653L219.071,189.661L221.046,191.511L223.232,195.486L225.348,191.913L227.535,193.26L229.651,195.061L231.837,196.079L234.024,197.476L236.14,198.78L238.326,202.543L240.442,200.487L242.629,201.599L244.815,205.683L246.79,204.63L248.976,204.319L251.092,200.278L253.279,204.076L255.395,200.711L257.581,198.94L259.768,202.227L261.884,201.737L264.07,204.451L266.186,203.676L268.373,201.162L270.559,203.744L272.534,206.033L274.72,199.754L276.836,199.288L279.023,205.519L281.139,205.634L283.325,205.088L285.512,203.206L287.628,206.943L289.814,208.825L291.93,208.327L294.117,210.456L296.303,210.471L298.349,215.985L300.535,220.924L302.651,222.447L304.837,222.557L306.953,220.787L309.14,219.807L311.326,223.174L313.442,226.45L315.629,225.357L317.745,227.925L319.931,225.476L322.118,225.802L324.093,227.68L326.279,226.974L328.395,227.982L330.581,226.572L332.697,229.417L334.884,229.613L337.07,229.053L339.186,225.32L341.373,221.065L343.489,224.682L345.675,225.779L347.862,224.732L349.837,222.668L352.023,223.507L354.139,220.344L356.325,219.851L358.441,220.665L360.628,218.154L362.814,218.967L364.93,220.169L367.117,220.51L369.233,218.748L371.419,218.272L373.606,219.042L375.581,218.414L377.767,218.632L379.883,217.988L382.069,213.82L384.185,211.641L386.372,213.065L388.558,223.969L390.674,221.701L392.861,219.307L394.977,218.946L397.163,226.203L399.35,223.504L401.395,224.913L403.582,217.81L405.698,220.962L407.884,220.709L410,215.714" data-legend="c#" style="stroke: rgb(214, 39, 40); fill: none;"></path><path class="line" d="M2.186,274.294L4.302,271.986L6.489,269.976L8.605,269.988L10.791,273.645L12.978,272.793L14.953,267.553L17.139,270.358L19.255,271.972L21.442,274.202L23.558,276.695L25.744,271.886L27.931,275.571L30.046,280.221L32.233,280.362L34.349,277.813L36.535,279.956L38.722,277.466L40.697,278.378L42.883,279.665L44.999,282.353L47.186,283.455L49.302,281.244L51.488,283.649L53.675,283.844L55.79,283.345L57.977,282.86L60.093,285.041L62.279,282.465L64.466,283.637L66.441,285.186L68.627,282.534L70.743,284.663L72.93,284.81L75.046,285.246L77.232,285.657L79.419,286.257L81.534,285.262L83.721,286.731L85.837,286.064L88.023,285.749L90.21,285.781L92.255,287.07L94.442,287.142L96.558,286.849L98.744,288.474L100.86,287.971L103.047,286.922L105.233,285.844L107.349,286.668L109.536,285.255L111.651,286.398L113.838,285.803L116.024,285.738L117.999,286.468L120.186,284.761L122.302,285.629L124.488,285.107L126.604,284.639L128.791,284.543L130.977,284.123L133.093,283.514L135.28,284.769L137.395,284.413L139.582,284.271L141.768,284.852L143.743,284.205L145.93,284.389L148.046,286.312L150.232,286.353L152.348,285.943L154.535,286.525L156.721,286.928L158.837,286.553L161.024,286.757L163.14,286.054L165.326,286.68L167.512,287.936L169.487,288.013L171.674,288.183L173.79,288.021L175.976,287.67L178.092,288.304L180.279,288.657L182.465,288.3L184.581,288.999L186.768,289.374L188.884,288.836L191.07,288.532L193.256,289.157L195.302,289.182L197.488,289.766L199.604,289.236L201.791,289.976L203.907,289.896L206.093,289.896L208.28,290.586L210.396,290.547L212.582,290.62L214.698,290.941L216.885,290.929L219.071,291.097L221.046,291.209L223.232,291.127L225.348,291.451L227.535,291.865L229.651,291.885L231.837,292.615L234.024,292.229L236.14,292.584L238.326,292.404L240.442,292.458L242.629,293.393L244.815,292.959L246.79,293.481L248.976,294.071L251.092,293.151L253.279,293.523L255.395,293.756L257.581,294.562L259.768,293.271L261.884,293.924L264.07,293.724L266.186,294.137L268.373,293.382L270.559,292.864L272.534,293.543L274.72,293.124L276.836,293.631L279.023,293.493L281.139,293.755L283.325,294.33L285.512,294.317L287.628,294.024L289.814,294.468L291.93,293.964L294.117,294.791L296.303,294.466L298.349,294.349L300.535,294.689L302.651,295.41L304.837,295.281L306.953,295.33L309.14,295.116L311.326,295.144L313.442,294.769L315.629,295.27L317.745,295.474L319.931,295.411L322.118,295.328L324.093,294.897L326.279,294.816L328.395,295.835L330.581,295.832L332.697,296.272L334.884,295.588L337.07,296.053L339.186,295.617L341.373,296.049L343.489,295.486L345.675,296.168L347.862,295.552L349.837,295.834L352.023,296.327L354.139,296.169L356.325,295.763L358.441,295.849L360.628,296.475L362.814,295.984L364.93,296.476L367.117,295.986L369.233,296.454L371.419,295.779L373.606,295.44L375.581,295.509L377.767,296.453L379.883,295.344L382.069,295.712L384.185,295.526L386.372,296.226L388.558,296.33L390.674,295.818L392.861,296.544L394.977,296.352L397.163,296.281L399.35,297.174L401.395,296.241L403.582,296.129L405.698,296.136L407.884,297.304L410,295.908" data-legend="vb.net" style="stroke: rgb(148, 103, 189); fill: none;"></path><path class="line" d="M2.186,223.245L4.302,216.074L6.489,222.471L8.605,212.347L10.791,215.92L12.978,209.245L14.953,217.026L17.139,217.099L19.255,206.421L21.442,207.497L23.558,208.659L25.744,204.258L27.931,210.258L30.046,205.006L32.233,202.118L34.349,197.147L36.535,201.617L38.722,200.962L40.697,203.748L42.883,198.865L44.999,195.346L47.186,194.992L49.302,192.747L51.488,194.364L53.675,190.175L55.79,191.872L57.977,190.352L60.093,180.348L62.279,186.149L64.466,186.677L66.441,187.435L68.627,179.196L70.743,177.739L72.93,169.938L75.046,164.782L77.232,160.646L79.419,165.496L81.534,167.273L83.721,166.756L85.837,165.335L88.023,161.297L90.21,164.958L92.255,165.745L94.442,161.243L96.558,156.407L98.744,156.076L100.86,154.452L103.047,152.727L105.233,158.343L107.349,161.077L109.536,160.185L111.651,154.465L113.838,153.303L116.024,150.694L117.999,152.426L120.186,150.347L122.302,148.508L124.488,145.525L126.604,140.517L128.791,134.301L130.977,121.087L133.093,120.83L135.28,124.477L137.395,117.587L139.582,112.825L141.768,111.558L143.743,117.5L145.93,115.47L148.046,112.08L150.232,111.455L152.348,109.842L154.535,111.067L156.721,117.266L158.837,116.762L161.024,119.266L163.14,116.802L165.326,112.757L167.512,114.046L169.487,118.464L171.674,114.97L173.79,99.785L175.976,97.77L178.092,94.089L180.279,94.785L182.465,97.815L184.581,103.367L186.768,99.556L188.884,94.663L191.07,91.101L193.256,99.507L195.302,99.143L197.488,99.567L199.604,95.919L201.791,97.926L203.907,88.823L206.093,90.215L208.28,99.372L210.396,103.718L212.582,103.061L214.698,94.781L216.885,96.249L219.071,96.367L221.046,102.177L223.232,99.958L225.348,98.049L227.535,96.302L229.651,97.711L231.837,97.632L234.024,103.026L236.14,103.718L238.326,106.753L240.442,103.666L242.629,101.61L244.815,110.573L246.79,113.555L248.976,114.006L251.092,118.423L253.279,112.364L255.395,111.879L257.581,109.632L259.768,112.824L261.884,116.859L264.07,117.541L266.186,117.863L268.373,118.845L270.559,119.099L272.534,118.25L274.72,122.111L276.836,119.878L279.023,115.938L281.139,119.666L283.325,112.659L285.512,116.503L287.628,123.377L289.814,120.969L291.93,118.045L294.117,115.945L296.303,117.168L298.349,110.459L300.535,107.616L302.651,106.058L304.837,105.956L306.953,98.407L309.14,95.429L311.326,100.484L313.442,105.004L315.629,106.53L317.745,98.828L319.931,96.994L322.118,104.654L324.093,110.193L326.279,103.535L328.395,101.111L330.581,104.148L332.697,99.884L334.884,98.548L337.07,97.52L339.186,104.583L341.373,109.998L343.489,104.062L345.675,103.355L347.862,110.643L349.837,114.851L352.023,101.732L354.139,107.223L356.325,109.44L358.441,106.453L360.628,105.243L362.814,107.011L364.93,115.399L367.117,119.656L369.233,120.806L371.419,125.548L373.606,133.111L375.581,135.734L377.767,138.048L379.883,143.921L382.069,143.971L384.185,140.133L386.372,152.21L388.558,158.47L390.674,166.303L392.861,165.948L394.977,154.71L397.163,159.511L399.35,165.933L401.395,163.054L403.582,171.937L405.698,172.9L407.884,174.234L410,179.278" data-legend="javascript" style="stroke: rgb(140, 86, 75); fill: none;"></path><path class="line" d="M2.186,296.605L4.302,298.14L6.489,297.865L8.605,297.616L10.791,297.653L12.978,296.539L14.953,298.019L17.139,296.037L19.255,296.988L21.442,297.134L23.558,298.332L25.744,297.524L27.931,296.831L30.046,296.611L32.233,296.406L34.349,297.232L36.535,296.254L38.722,297.409L40.697,296.037L42.883,295.832L44.999,296.503L47.186,297.283L49.302,297.317L51.488,297.728L53.675,296.785L55.79,296.759L57.977,296.041L60.093,296.979L62.279,297.204L64.466,297.019L66.441,296.784L68.627,297.203L70.743,297.349L72.93,297.638L75.046,297.655L77.232,297.499L79.419,297.453L81.534,296.486L83.721,296.729L85.837,296.284L88.023,297.537L90.21,296.872L92.255,296.707L94.442,296.384L96.558,297.15L98.744,297.419L100.86,297.616L103.047,297.753L105.233,297.189L107.349,296.476L109.536,296.558L111.651,296.758L113.838,296.862L116.024,296.44L117.999,296.445L120.186,296.752L122.302,296.968L124.488,296.896L126.604,297.179L128.791,297.925L130.977,297.054L133.093,296.568L135.28,296.021L137.395,296.38L139.582,296.99L141.768,296.661L143.743,296.363L145.93,296.89L148.046,296.865L150.232,297.254L152.348,297.948L154.535,298.116L156.721,297.173L158.837,296.225L161.024,296.144L163.14,296.492L165.326,296.634L167.512,296.442L169.487,296.611L171.674,296.123L173.79,296.672L175.976,297.606L178.092,297.759L180.279,297.967L182.465,297.565L184.581,296.113L186.768,296.19L188.884,296.562L191.07,297.705L193.256,296.901L195.302,296.36L197.488,296.466L199.604,297.12L201.791,297.35L203.907,298.076L206.093,297.627L208.28,296.708L210.396,296.172L212.582,296.036L214.698,296.748L216.885,297.081L219.071,297.103L221.046,296.905L223.232,297.017L225.348,296.855L227.535,297.73L229.651,297.936L231.837,297.947L234.024,297.618L236.14,296.708L238.326,296.167L240.442,297.134L242.629,297.338L244.815,296.904L246.79,296.906L248.976,296.667L251.092,297.029L253.279,297.768L255.395,298.074L257.581,298.12L259.768,296.999L261.884,296.625L264.07,296.596L266.186,297.171L268.373,297.53L270.559,297.409L272.534,297.098L274.72,296.656L276.836,297.381L279.023,297.519L281.139,297.903L283.325,297.95L285.512,297.264L287.628,296.485L289.814,296.784L291.93,296.848L294.117,297.361L296.303,296.855L298.349,296.828L300.535,296.508L302.651,296.759L304.837,296.775L306.953,297.243L309.14,296.994L311.326,296.492L313.442,295.913L315.629,295.32L317.745,296.23L319.931,296.293L322.118,296.868L324.093,296.363L326.279,296.034L328.395,296.214L330.581,296.579L332.697,297.497L334.884,297.773L337.07,297.294L339.186,297.121L341.373,295.978L343.489,296.013L345.675,296.776L347.862,296.827L349.837,296.818L352.023,296.372L354.139,296.27L356.325,296.399L358.441,296.914L360.628,297.566L362.814,297.187L364.93,296.428L367.117,295.847L369.233,295.463L371.419,296.005L373.606,296.619L375.581,296.891L377.767,295.548L379.883,295.901L382.069,296.268L384.185,295.981L386.372,296.198L388.558,296.104L390.674,295.742L392.861,295.549L394.977,294.467L397.163,295.143L399.35,296.232L401.395,295.95L403.582,294.436L405.698,294.316L407.884,296.262L410,296.231" data-legend="assembly" style="stroke: rgb(227, 119, 194); fill: none;"></path><path class="line" d="M2.186,242.525L4.302,229.79L6.489,233.68L8.605,233.524L10.791,233.099L12.978,227.607L14.953,226.273L17.139,224.549L19.255,223.644L21.442,206.303L23.558,195.521L25.744,188.06L27.931,185.267L30.046,191.495L32.233,183.006L34.349,174.827L36.535,172.319L38.722,182.033L40.697,180.289L42.883,178.261L44.999,171.934L47.186,177.299L49.302,173.493L51.488,165.254L53.675,171.82L55.79,181.884L57.977,177.485L60.093,170.778L62.279,165.985L64.466,164.901L66.441,165.788L68.627,166.813L70.743,165.204L72.93,164.365L75.046,156.106L77.232,161.039L79.419,168.027L81.534,167.389L83.721,166.771L85.837,165.417L88.023,166.382L90.21,166.324L92.255,164.023L94.442,165.371L96.558,163.897L98.744,165.008L100.86,161.736L103.047,159.504L105.233,161.026L107.349,168.675L109.536,166.944L111.651,163.484L113.838,163.283L116.024,163.045L117.999,164.157L120.186,169.354L122.302,168.609L124.488,165.796L126.604,164.388L128.791,159.513L130.977,156.386L133.093,161.232L135.28,159.203L137.395,154.599L139.582,151.576L141.768,153.25L143.743,152.743L145.93,148.434L148.046,160.264L150.232,166.459L152.348,165.262L154.535,164.955L156.721,165.48L158.837,168.672L161.024,169.219L163.14,167.066L165.326,162.682L167.512,165.372L169.487,168.267L171.674,167.775L173.79,168.34L175.976,171.705L178.092,168.093L180.279,168.317L182.465,172.433L184.581,174.778L186.768,174.749L188.884,166.481L191.07,165.124L193.256,167.154L195.302,174.053L197.488,176.607L199.604,172.12L201.791,175.914L203.907,177.379L206.093,180.846L208.28,181.113L210.396,182.452L212.582,185.469L214.698,181.221L216.885,180.107L219.071,180.228L221.046,183.163L223.232,183.507L225.348,182.65L227.535,189.363L229.651,190.22L231.837,189.872L234.024,189.299L236.14,193.159L238.326,194.768L240.442,194.581L242.629,194.193L244.815,199.909L246.79,204.513L248.976,207.6L251.092,205.243L253.279,208.069L255.395,209.791L257.581,209.57L259.768,210.445L261.884,214.436L264.07,220.293L266.186,220.742L268.373,219.055L270.559,216.234L272.534,218.526L274.72,221.154L276.836,222.493L279.023,225.415L281.139,225.658L283.325,228.31L285.512,231.497L287.628,233.143L289.814,230.78L291.93,233.376L294.117,232.18L296.303,234.225L298.349,238.869L300.535,239.111L302.651,241.186L304.837,241.906L306.953,239.781L309.14,243.361L311.326,243.243L313.442,245.657L315.629,242.501L317.745,239.738L319.931,242.697L322.118,243.886L324.093,246.183L326.279,246.567L328.395,246.397L330.581,246.692L332.697,247.09L334.884,246.708L337.07,247.985L339.186,249.178L341.373,250.705L343.489,251.403L345.675,252.249L347.862,253.825L349.837,257.291L352.023,253.066L354.139,251.24L356.325,251.596L358.441,252.959L360.628,253.432L362.814,254.021L364.93,256.076L367.117,257.133L369.233,258.626L371.419,255.966L373.606,260.435L375.581,263.343L377.767,260.637L379.883,258.576L382.069,258.604L384.185,261.152L386.372,257.79L388.558,258.504L390.674,262.967L392.861,263.581L394.977,262.935L397.163,261.672L399.35,262.894L401.395,260.344L403.582,264.439L405.698,263.371L407.884,259.204L410,264.067" data-legend="php" style="stroke: rgb(127, 127, 127); fill: none;"></path><path class="line" d="M2.186,284.237L4.302,285.121L6.489,287.056L8.605,281.347L10.791,284.422L12.978,284.329L14.953,288.772L17.139,287.24L19.255,287.165L21.442,285.309L23.558,286.653L25.744,287.207L27.931,287.377L30.046,286.907L32.233,285.885L34.349,288.349L36.535,288.761L38.722,286.968L40.697,287.433L42.883,287.799L44.999,290.739L47.186,287.651L49.302,287.966L51.488,285.603L53.675,287.361L55.79,286.876L57.977,288.799L60.093,287.916L62.279,290.013L64.466,290.247L66.441,289.935L68.627,290.326L70.743,290.251L72.93,290.366L75.046,288.98L77.232,290.422L79.419,291.731L81.534,290.757L83.721,290.638L85.837,291.247L88.023,291.826L90.21,291.627L92.255,292.313L94.442,292.138L96.558,291.905L98.744,290.462L100.86,292.099L103.047,290.964L105.233,291.58L107.349,292.346L109.536,292.775L111.651,293.156L113.838,292.966L116.024,291.814L117.999,291.776L120.186,291.787L122.302,290.904L124.488,291.22L126.604,290.947L128.791,291.787L130.977,293.072L133.093,292.579L135.28,292.175L137.395,292.262L139.582,292.804L141.768,292.945L143.743,292.661L145.93,292.896L148.046,292.411L150.232,293.005L152.348,293.048L154.535,292.969L156.721,293.13L158.837,293.792L161.024,293.379L163.14,293.882L165.326,294.029L167.512,294.363L169.487,294.339L171.674,294.899L173.79,295.221L175.976,294.889L178.092,295.018L180.279,294.876L182.465,295.595L184.581,295.507L186.768,295.623L188.884,295.341L191.07,295.864L193.256,295.534L195.302,296.102L197.488,295.79L199.604,295.689L201.791,296.034L203.907,296.067L206.093,295.736L208.28,295.47L210.396,296.144L212.582,296.46L214.698,296.51L216.885,296.91L219.071,296.169L221.046,296.579L223.232,296.517L225.348,296.792L227.535,297.049L229.651,296.979L231.837,296.626L234.024,296.91L236.14,296.698L238.326,297.365L240.442,297.25L242.629,297.422L244.815,297.455L246.79,297.189L248.976,297.373L251.092,297.563L253.279,297.396L255.395,297.397L257.581,297.575L259.768,297.597L261.884,297.078L264.07,297.354L266.186,297.209L268.373,297.031L270.559,297.109L272.534,297.571L274.72,297.737L276.836,297.526L279.023,297.07L281.139,297.354L283.325,297.628L285.512,297.536L287.628,297.694L289.814,297.502L291.93,297.997L294.117,298.098L296.303,297.926L298.349,297.878L300.535,297.977L302.651,298.081L304.837,298.053L306.953,298.209L309.14,297.814L311.326,298.019L313.442,297.974L315.629,298.123L317.745,298.348L319.931,298.249L322.118,298.293L324.093,298.272L326.279,298.309L328.395,298.485L330.581,297.981L332.697,298.123L334.884,298.368L337.07,298.421L339.186,298.199L341.373,298.91L343.489,298.48L345.675,298.218L347.862,298.576L349.837,298.593L352.023,298.525L354.139,298.679L356.325,298.139L358.441,298.084L360.628,298.267L362.814,298.667L364.93,298.714L367.117,298.354L369.233,298.366L371.419,298.749L373.606,298.467L375.581,298.196L377.767,298.654L379.883,298.659L382.069,298.571L384.185,298.259L386.372,298.658L388.558,298.492L390.674,298.665L392.861,298.848L394.977,298.362L397.163,299.084L399.35,298.972L401.395,298.631L403.582,299.214L405.698,298.786L407.884,298.922L410,298.708" data-legend="perl" style="stroke: rgb(188, 189, 34); fill: none;"></path><path class="line" d="M2.186,265.321L4.302,271.405L6.489,279.45L8.605,277.701L10.791,278.126L12.978,272.504L14.953,272.837L17.139,271.785L19.255,273.806L21.442,274.262L23.558,273.984L25.744,275.033L27.931,275.622L30.046,277.157L32.233,271.332L34.349,274.555L36.535,274.449L38.722,274.161L40.697,277.701L42.883,274.725L44.999,274.905L47.186,274.337L49.302,274.826L51.488,273.796L53.675,274.309L55.79,275.623L57.977,277.621L60.093,275.325L62.279,274.728L64.466,274.716L66.441,272.738L68.627,274.056L70.743,273.772L72.93,273.597L75.046,273.589L77.232,270.953L79.419,274.515L81.534,273.355L83.721,273.168L85.837,272.894L88.023,272.606L90.21,272.287L92.255,272.493L94.442,274.389L96.558,275.387L98.744,275.722L100.86,275.61L103.047,275.567L105.233,275.161L107.349,274.738L109.536,275.838L111.651,276.374L113.838,275.492L116.024,275.716L117.999,275.28L120.186,275.89L122.302,276.412L124.488,276.433L126.604,276.825L128.791,275.549L130.977,275.793L133.093,274.569L135.28,275.484L137.395,275.261L139.582,275.472L141.768,276.786L143.743,276.186L145.93,276.262L148.046,274.488L150.232,275.876L152.348,275.78L154.535,274.729L156.721,277.068L158.837,277.241L161.024,278.743L163.14,276.796L165.326,275.478L167.512,277.46L169.487,278.218L171.674,277.829L173.79,277.33L175.976,276.936L178.092,277.78L180.279,278.559L182.465,279.584L184.581,280.213L186.768,281.528L188.884,280.202L191.07,280.093L193.256,279.922L195.302,281.176L197.488,281.063L199.604,281.058L201.791,280.775L203.907,281.925L206.093,282.619L208.28,281.103L210.396,282.526L212.582,283.135L214.698,283.098L216.885,282.631L219.071,284.398L221.046,285.036L223.232,285.982L225.348,286.291L227.535,286.624L229.651,285.731L231.837,286.779L234.024,287.287L236.14,287.141L238.326,288.292L240.442,288.211L242.629,287.796L244.815,288.662L246.79,289.655L248.976,289.773L251.092,289.606L253.279,289.179L255.395,290.052L257.581,290.662L259.768,290.926L261.884,290.57L264.07,290.581L266.186,289.681L268.373,289.62L270.559,290.91L272.534,291.167L274.72,291.535L276.836,291.493L279.023,291.249L281.139,291.502L283.325,290.403L285.512,291.148L287.628,290.609L289.814,292.199L291.93,291.489L294.117,291.23L296.303,292.404L298.349,292.314L300.535,292.943L302.651,293.708L304.837,293.983L306.953,292.929L309.14,293.704L311.326,293.891L313.442,294.15L315.629,293.743L317.745,293.722L319.931,293.696L322.118,293.198L324.093,294.374L326.279,293.573L328.395,294.964L330.581,294.521L332.697,293.946L334.884,293.845L337.07,293.741L339.186,294.142L341.373,294.449L343.489,294.403L345.675,293.75L347.862,294.009L349.837,293.936L352.023,293.643L354.139,293.673L356.325,293.569L358.441,293.873L360.628,293.667L362.814,293.513L364.93,294.079L367.117,293.648L369.233,294.003L371.419,294.32L373.606,293.789L375.581,294.914L377.767,295.156L379.883,294.357L382.069,294.918L384.185,294.642L386.372,295.108L388.558,295.225L390.674,295.188L392.861,296.073L394.977,295.27L397.163,295.532L399.35,295.519L401.395,296.008L403.582,296.553L405.698,296.264L407.884,295.759L410,296.446" data-legend="ruby" style="stroke: rgb(23, 190, 207); fill: none;"></path><path class="line" d="M2.186,300L4.302,300L6.489,300L8.605,300L10.791,299.893L12.978,299.904L14.953,299.917L17.139,300L19.255,299.869L21.442,300L23.558,300L25.744,299.845L27.931,299.847L30.046,299.954L32.233,299.868L34.349,299.955L36.535,300L38.722,299.925L40.697,299.968L42.883,299.933L44.999,299.968L47.186,299.909L49.302,299.972L51.488,299.947L53.675,299.945L55.79,299.974L57.977,299.976L60.093,299.952L62.279,299.916L64.466,299.899L66.441,299.95L68.627,299.947L70.743,299.983L72.93,299.932L75.046,299.799L77.232,299.874L79.419,299.901L81.534,299.9L83.721,299.938L85.837,299.967L88.023,299.913L90.21,299.877L92.255,299.949L94.442,299.934L96.558,299.912L98.744,299.948L100.86,299.893L103.047,299.941L105.233,299.911L107.349,299.955L109.536,299.955L111.651,299.95L113.838,299.947L116.024,299.934L117.999,299.952L120.186,299.941L122.302,299.98L124.488,299.957L126.604,299.933L128.791,299.96L130.977,299.909L133.093,299.909L135.28,299.952L137.395,299.888L139.582,299.947L141.768,299.893L143.743,299.96L145.93,299.965L148.046,299.914L150.232,275.317L152.348,284.518L154.535,282.614L156.721,280.838L158.837,276.074L161.024,274.282L163.14,273.158L165.326,269.143L167.512,267.725L169.487,268.182L171.674,264.468L173.79,265.668L175.976,261.315L178.092,255.732L180.279,252.894L182.465,257.007L184.581,261.239L186.768,259.265L188.884,257.385L191.07,255.605L193.256,257.629L195.302,257.72L197.488,259.414L199.604,260.846L201.791,256.268L203.907,253.098L206.093,254.624L208.28,252.359L210.396,254.579L212.582,258.074L214.698,259.247L216.885,258.691L219.071,261.058L221.046,261.489L223.232,263.139L225.348,263.076L227.535,260.375L229.651,259.276L231.837,260.357L234.024,260.946L236.14,261.461L238.326,263.459L240.442,262.915L242.629,260.694L244.815,262.549L246.79,260.591L248.976,263.025L251.092,263.66L253.279,265.72L255.395,261.267L257.581,261.943L259.768,263.271L261.884,265.593L264.07,266.371L266.186,264.461L268.373,267.182L270.559,269.121L272.534,269.116L274.72,266.239L276.836,265.366L279.023,261.617L281.139,266.03L283.325,268.799L285.512,268.466L287.628,265.729L289.814,267.426L291.93,266.171L294.117,266.718L296.303,267.928L298.349,268.563L300.535,268.262L302.651,268.28L304.837,269.05L306.953,269.682L309.14,269.58L311.326,269.599L313.442,272.477L315.629,273.034L317.745,273.638L319.931,272.164L322.118,271.147L324.093,273.029L326.279,273.818L328.395,276.625L330.581,276.642L332.697,273.389L334.884,273.942L337.07,277.22L339.186,277.858L341.373,278.347L343.489,278.711L345.675,275.609L347.862,276.319L349.837,276.29L352.023,278.657L354.139,278.856L356.325,277.152L358.441,277.696L360.628,277.881L362.814,275.791L364.93,278.967L367.117,277.959L369.233,278.653L371.419,279.069L373.606,279.107L375.581,278.255L377.767,278.105L379.883,279.554L382.069,275.173L384.185,274.95L386.372,278.42L388.558,278.561L390.674,277.856L392.861,277.483L394.977,277.279L397.163,276.215L399.35,280.933L401.395,278.992L403.582,279.256L405.698,280.52L407.884,277.212L410,277.6" data-legend="swift" style="stroke: rgb(31, 119, 180); fill: none;"></path><path class="line" d="M2.186,299.272L4.302,300L6.489,299.867L8.605,299.86L10.791,299.146L12.978,299.231L14.953,299.67L17.139,299.049L19.255,299.869L21.442,299.701L23.558,297.393L25.744,297.575L27.931,292.947L30.046,296.611L32.233,295.923L34.349,296.429L36.535,296.478L38.722,295.418L40.697,295.521L42.883,294.622L44.999,295.499L47.186,294.686L49.302,293.554L51.488,292.524L53.675,293.515L55.79,294.36L57.977,294.182L60.093,294.611L62.279,294.765L64.466,293.471L66.441,292.968L68.627,291.663L70.743,292.868L72.93,292.49L75.046,292.413L77.232,290.784L79.419,289.879L81.534,289.708L83.721,290.622L85.837,290.025L88.023,289.946L90.21,288.923L92.255,288.767L94.442,289.009L96.558,289.017L98.744,287.532L100.86,286.785L103.047,287.112L105.233,286.557L107.349,285.804L109.536,284.721L111.651,284.97L113.838,283.946L116.024,281.804L117.999,282.167L120.186,282.033L122.302,282.051L124.488,281.196L126.604,281.342L128.791,281.104L130.977,282.65L133.093,280.995L135.28,279.196L137.395,280.64L139.582,279.141L141.768,276.598L143.743,277.361L145.93,276.392L148.046,275.396L150.232,275.213L152.348,275.049L154.535,274.605L156.721,276.126L158.837,273.096L161.024,272.748L163.14,274.5L165.326,272.832L167.512,270.354L169.487,268.449L171.674,270.519L173.79,269.005L175.976,269.35L178.092,265.73L180.279,267.606L182.465,268.489L184.581,266.771L186.768,266.591L188.884,268.969L191.07,267.148L193.256,267.972L195.302,266.268L197.488,264.719L199.604,266.277L201.791,264.739L203.907,264.336L206.093,264.942L208.28,267.571L210.396,263.59L212.582,265.79L214.698,267.287L216.885,266.769L219.071,264.638L221.046,261.514L223.232,259.788L225.348,261.043L227.535,257.991L229.651,257.08L231.837,256.65L234.024,256.119L236.14,254.997L238.326,255.064L240.442,256.927L242.629,255.855L244.815,250.417L246.79,250.256L248.976,250.919L251.092,252.39L253.279,251.004L255.395,253.414L257.581,256.195L259.768,256.049L261.884,254.128L264.07,252.293L266.186,256.537L268.373,255.363L270.559,250.952L272.534,252.827L274.72,249.32L276.836,251.956L279.023,250.884L281.139,252.98L283.325,251.235L285.512,251.294L287.628,251.459L289.814,251.196L291.93,252.3L294.117,252.359L296.303,245.607L298.349,244.65L300.535,243.037L302.651,245.621L304.837,246.595L306.953,249.813L309.14,248.872L311.326,243.326L313.442,239.676L315.629,239.91L317.745,245.348L319.931,247.636L322.118,244.554L324.093,241.319L326.279,240.462L328.395,241.171L330.581,243.979L332.697,244.995L334.884,244.232L337.07,245.081L339.186,240.866L341.373,243.029L343.489,246.784L345.675,245.688L347.862,242.007L349.837,238.839L352.023,238.419L354.139,240.022L356.325,241.186L358.441,244.323L360.628,243.514L362.814,242.51L364.93,237.916L367.117,238.476L369.233,244.145L371.419,243.442L373.606,235.749L375.581,236.589L377.767,236.393L379.883,239.876L382.069,241.506L384.185,245.773L386.372,244.037L388.558,249.279L390.674,248.632L392.861,248.081L394.977,250.663L397.163,250.154L399.35,248.051L401.395,250.874L403.582,253.673L405.698,256.122L407.884,257.083L410,258.216" data-legend="r" style="stroke: rgb(255, 127, 14); fill: none;"></path><path class="line" d="M2.186,293.937L4.302,289.538L6.489,285.855L8.605,282.75L10.791,284.742L12.978,279.811L14.953,275.975L17.139,271.785L19.255,267.257L21.442,270.738L23.558,264.652L25.744,263.994L27.931,264.532L30.046,265.271L32.233,266.774L34.349,265.091L36.535,262.872L38.722,262.143L40.697,263.62L42.883,261.179L44.999,257.711L47.186,256.735L49.302,246.581L51.488,250.603L53.675,254.581L55.79,254.251L57.977,255.87L60.093,255.774L62.279,254.27L64.466,250.75L66.441,249.358L68.627,243.397L70.743,241.487L72.93,243.337L75.046,238.42L77.232,239.908L79.419,246.053L81.534,245.96L83.721,245.159L85.837,246.359L88.023,245.591L90.21,247.824L92.255,251.939L94.442,249.199L96.558,251.833L98.744,251.29L100.86,249.119L103.047,250.101L105.233,256.986L107.349,253.876L109.536,256.413L111.651,253.902L113.838,256.662L116.024,257.311L117.999,257.418L120.186,260.298L122.302,261.546L124.488,264.315L126.604,264.332L128.791,265.054L130.977,260.049L133.093,259.397L135.28,261.723L137.395,259.582L139.582,260.901L141.768,259.123L143.743,259.508L145.93,259.837L148.046,260.399L150.232,261.327L152.348,260.46L154.535,262.036L156.721,262.233L158.837,264.251L161.024,267.136L163.14,267.278L165.326,269.812L167.512,268.435L169.487,270.986L171.674,270.102L173.79,271.635L175.976,272.121L178.092,271.488L180.279,272.414L182.465,272.81L184.581,274.464L186.768,277.935L188.884,278.033L191.07,278.077L193.256,279.199L195.302,280.984L197.488,281.003L199.604,282.258L201.791,281.031L203.907,282.192L206.093,283.24L208.28,283.55L210.396,284.372L212.582,284.992L214.698,284.47L216.885,286.055L219.071,287.141L221.046,287.938L223.232,289.258L225.348,289.319L227.535,288.46L229.651,289.643L231.837,290.657L234.024,290.772L236.14,291.503L238.326,291.925L240.442,292.597L242.629,293.035L244.815,293.521L246.79,294.203L248.976,294.258L251.092,294.138L253.279,294.726L255.395,294.624L257.581,294.979L259.768,295.182L261.884,295.633L264.07,296.178L266.186,296.531L268.373,296.351L270.559,296.635L272.534,296.824L274.72,296.512L276.836,296.933L279.023,296.809L281.139,297.276L283.325,297.406L285.512,296.917L287.628,296.463L289.814,296.886L291.93,296.874L294.117,296.946L296.303,297.088L298.349,297.434L300.535,297.358L302.651,297.556L304.837,297.837L306.953,297.1L309.14,297.655L311.326,297.327L313.442,297.057L315.629,297.372L317.745,297.983L319.931,298.201L322.118,297.741L324.093,298.045L326.279,297.986L328.395,298.384L330.581,298.165L332.697,298.34L334.884,298.313L337.07,298.492L339.186,298.184L341.373,298.187L343.489,298.345L345.675,298.091L347.862,298.621L349.837,298.88L352.023,298.304L354.139,298.781L356.325,298.593L358.441,298.708L360.628,298.745L362.814,298.651L364.93,298.698L367.117,298.539L369.233,299.027L371.419,299.062L373.606,298.919L375.581,298.848L377.767,299.021L379.883,298.456L382.069,299.047L384.185,298.902L386.372,298.966L388.558,299.095L390.674,298.917L392.861,298.665L394.977,298.671L397.163,298.918L399.35,298.858L401.395,298.805L403.582,298.73L405.698,298.786L407.884,298.778L410,298.744" data-legend="objective-c" style="stroke: rgb(44, 160, 44); fill: none;"></path></g></g><g transform="translate(20, 150)"><text font-family="sans-serif" transform="rotate(-90)" x="-50" y="0" dy="1em" class="axis-label y-axis-label" style="text-anchor: middle; font-weight: bold;">% of Stack Overflow questions that month</text></g><g font-family="sans-serif" class="legend" transform="translate(530, 20)" style="font-size: 12px;"><rect y="0" width="10" height="10" style="fill: rgb(31, 119, 180);"></rect><rect y="15" width="10" height="10" style="fill: rgb(255, 127, 14);"></rect><rect y="30" width="10" height="10" style="fill: rgb(44, 160, 44);"></rect><rect y="45" width="10" height="10" style="fill: rgb(214, 39, 40);"></rect><rect y="60" width="10" height="10" style="fill: rgb(148, 103, 189);"></rect><rect y="75" width="10" height="10" style="fill: rgb(140, 86, 75);"></rect><rect y="90" width="10" height="10" style="fill: rgb(227, 119, 194);"></rect><rect y="105" width="10" height="10" style="fill: rgb(127, 127, 127);"></rect><rect y="120" width="10" height="10" style="fill: rgb(188, 189, 34);"></rect><rect y="135" width="10" height="10" style="fill: rgb(23, 190, 207);"></rect><rect y="150" width="10" height="10" style="fill: rgb(31, 119, 180);"></rect><rect y="165" width="10" height="10" style="fill: rgb(255, 127, 14);"></rect><rect y="180" width="10" height="10" style="fill: rgb(44, 160, 44);"></rect><text font-size="10px" x="13" y="5" text-anchor="left">java</text><text font-size="10px" x="13" y="20" text-anchor="left">c</text><text font-size="10px" x="13" y="35" text-anchor="left">python</text><text font-size="10px" x="13" y="50" text-anchor="left">c#</text><text font-size="10px" x="13" y="65" text-anchor="left">vb.net</text><text font-size="10px" x="13" y="80" text-anchor="left">javascript</text><text font-size="10px" x="13" y="95" text-anchor="left">assembly</text><text font-size="10px" x="13" y="110" text-anchor="left">php</text><text font-size="10px" x="13" y="125" text-anchor="left">perl</text><text font-size="10px" x="13" y="140" text-anchor="left">ruby</text><text font-size="10px" x="13" y="155" text-anchor="left">swift</text><text font-size="10px" x="13" y="170" text-anchor="left">r</text><text font-size="10px" x="13" y="185" text-anchor="left">objective-c</text></g></svg>